# xmcd
#
# Track frame offsets:
#	150
#	12168
#	20126
#	31915
#	43666
#	57465
#	67839
#	79563
#	91995
#
# Disc length: 1373 seconds
#
# Revision: 1
# Processed by: cddbd v1.4PL0 Copyright (c) Steve Scherf et al.
# Submitted via: audiograbber 1.80.04
#
DISCID=67055b09
DTITLE=Gary Sergent - Singles
DYEAR=1900
DGENRE=Country
TTITLE0=Red Hot Memories
TTITLE1=Everybodies Troubles But Mine
TTITLE2=Ode To Joli Blon
TTITLE3=Fair To Middlin Lower Middle Class
TTITLE4=I Just Started Hatin Cheatin Songs Today
TTITLE5=Is This The Last Time We're Gonna Say Goodby
TTITLE6=Daytime Lover
TTITLE7=Too Low To Get High
TTITLE8=Love Me Wrong
EXTD=
EXTT0=
EXTT1=
EXTT2=
EXTT3=
EXTT4=
EXTT5=
EXTT6=
EXTT7=
EXTT8=
PLAYORDER=
